<svg id="svg" xmlns="http://www.w3.org/2000/svg" xmlns:xlink="http://www.w3.org/1999/xlink" width="400" height="260.8852755194219" viewBox="0, 0, 400,260.8852755194219"><g id="svgg"><path id="path0" d="M181.748 6.041 C 178.246 6.165,175.384 6.377,175.238 6.523 C 175.095 6.667,174.032 6.790,172.877 6.798 C 171.721 6.806,169.309 6.973,167.515 7.171 C 165.721 7.368,163.079 7.658,161.644 7.816 C 160.209 7.973,158.624 8.210,158.121 8.342 C 157.619 8.474,155.740 8.722,153.947 8.894 C 152.153 9.066,150.568 9.294,150.424 9.402 C 150.280 9.509,149.282 9.681,148.206 9.785 C 147.130 9.888,146.132 10.062,145.988 10.172 C 145.845 10.281,144.553 10.514,143.118 10.690 C 141.683 10.865,140.391 11.098,140.248 11.206 C 140.104 11.315,138.932 11.546,137.643 11.721 C 136.354 11.896,135.180 12.135,135.034 12.253 C 134.888 12.370,134.035 12.550,133.138 12.651 C 132.241 12.753,131.507 12.917,131.507 13.014 C 131.507 13.112,130.539 13.344,129.357 13.530 C 128.175 13.716,127.089 13.961,126.944 14.074 C 126.798 14.187,126.163 14.359,125.530 14.455 C 124.898 14.552,124.253 14.713,124.095 14.814 C 123.938 14.915,122.929 15.197,121.853 15.441 C 118.411 16.219,116.518 16.707,115.982 16.952 C 115.695 17.083,115.049 17.270,114.547 17.367 C 114.044 17.463,113.516 17.633,113.372 17.745 C 113.229 17.856,112.438 18.085,111.616 18.254 C 110.793 18.423,110.061 18.657,109.988 18.774 C 109.916 18.891,109.327 19.067,108.679 19.164 C 108.031 19.261,107.502 19.424,107.502 19.526 C 107.502 19.628,106.838 19.866,106.027 20.055 C 105.216 20.243,104.364 20.499,104.135 20.622 C 103.906 20.745,102.720 21.171,101.500 21.567 C 100.280 21.963,98.989 22.438,98.630 22.623 C 98.271 22.807,97.802 22.960,97.586 22.962 C 97.371 22.963,96.880 23.129,96.495 23.330 C 96.110 23.531,95.435 23.774,94.995 23.871 C 94.555 23.968,94.194 24.140,94.194 24.254 C 94.194 24.368,93.842 24.532,93.412 24.618 C 92.981 24.704,92.107 25.013,91.469 25.303 C 90.831 25.594,90.127 25.832,89.903 25.832 C 89.680 25.832,89.498 25.940,89.498 26.072 C 89.498 26.204,89.116 26.394,88.650 26.493 C 88.183 26.593,87.508 26.828,87.149 27.016 C 86.507 27.352,85.155 27.960,83.105 28.835 C 79.511 30.369,69.667 35.263,69.667 35.516 C 69.667 35.620,69.334 35.779,68.926 35.868 C 68.519 35.958,67.569 36.437,66.816 36.933 C 66.063 37.429,65.390 37.834,65.320 37.834 C 65.150 37.834,61.484 39.965,61.318 40.161 C 61.246 40.245,60.835 40.490,60.404 40.705 C 59.974 40.919,59.563 41.160,59.491 41.238 C 59.419 41.317,58.775 41.720,58.060 42.134 C 57.345 42.547,56.640 42.984,56.495 43.105 C 56.349 43.226,54.922 44.187,53.324 45.241 C 50.115 47.355,48.447 48.560,48.315 48.858 C 48.267 48.966,48.101 49.054,47.945 49.054 C 47.790 49.054,47.477 49.236,47.250 49.459 C 47.022 49.682,45.897 50.574,44.749 51.441 C 43.602 52.309,42.236 53.389,41.715 53.841 C 41.194 54.294,40.267 55.075,39.655 55.577 C 35.659 58.857,28.377 66.153,24.789 70.472 C 23.185 72.404,23.189 72.398,21.419 74.755 C 20.557 75.903,19.758 76.961,19.645 77.105 C 18.958 77.980,16.634 81.550,15.766 83.066 C 15.203 84.048,14.518 85.223,14.244 85.675 C 13.502 86.899,10.698 92.453,10.698 92.699 C 10.698 92.816,10.348 93.661,9.920 94.576 C 9.492 95.492,8.998 96.779,8.822 97.436 C 8.646 98.093,8.422 98.630,8.325 98.630 C 8.227 98.630,8.071 99.036,7.978 99.532 C 7.884 100.029,7.645 100.748,7.446 101.132 C 7.247 101.516,7.006 102.401,6.910 103.100 C 6.814 103.799,6.643 104.371,6.531 104.371 C 6.418 104.371,6.179 105.339,5.999 106.523 C 5.819 107.707,5.584 108.793,5.477 108.937 C 5.370 109.080,5.197 110.020,5.094 111.024 C 4.991 112.029,4.780 113.004,4.626 113.192 C 4.234 113.671,4.059 127.851,4.409 130.855 C 4.773 133.989,5.312 137.316,5.506 137.639 C 5.593 137.782,5.816 138.813,6.001 139.930 C 6.187 141.047,6.439 142.022,6.561 142.098 C 6.684 142.174,6.784 142.456,6.784 142.726 C 6.784 143.272,8.057 147.406,8.351 147.815 C 8.454 147.958,8.622 148.424,8.724 148.849 C 8.826 149.275,9.142 150.156,9.427 150.806 C 9.711 151.457,10.041 152.224,10.160 152.511 C 12.233 157.509,16.759 165.489,19.800 169.507 C 20.032 169.813,20.398 170.323,20.613 170.641 C 21.134 171.408,23.038 173.881,23.504 174.394 C 23.708 174.619,23.992 174.953,24.136 175.138 C 27.414 179.345,37.058 189.135,39.709 190.946 C 40.041 191.173,40.372 191.438,40.444 191.534 C 41.135 192.460,54.090 202.042,55.071 202.353 C 55.349 202.442,55.577 202.602,55.577 202.709 C 55.577 202.816,55.983 203.063,56.480 203.257 C 56.976 203.452,57.442 203.768,57.515 203.958 C 57.588 204.149,57.828 204.305,58.048 204.305 C 58.268 204.305,58.447 204.401,58.447 204.518 C 58.447 204.634,58.858 204.891,59.361 205.088 C 59.863 205.285,60.274 205.533,60.274 205.640 C 60.274 205.746,60.597 205.996,60.992 206.195 C 61.949 206.679,62.983 207.275,63.144 207.437 C 63.216 207.509,63.627 207.743,64.057 207.958 C 64.488 208.173,64.899 208.408,64.971 208.480 C 65.156 208.665,67.925 210.162,69.928 211.159 C 70.861 211.623,71.684 212.081,71.757 212.178 C 71.831 212.274,72.213 212.434,72.608 212.533 C 73.002 212.632,73.385 212.810,73.458 212.928 C 73.617 213.185,76.860 214.742,77.235 214.742 C 77.378 214.742,77.495 214.860,77.495 215.003 C 77.495 215.147,77.619 215.264,77.771 215.264 C 77.923 215.264,79.010 215.727,80.185 216.292 C 81.360 216.858,82.645 217.399,83.040 217.495 C 83.434 217.591,83.757 217.768,83.757 217.890 C 83.757 218.011,84.168 218.188,84.671 218.282 C 85.173 218.376,85.584 218.539,85.584 218.644 C 85.584 218.749,86.083 218.984,86.693 219.166 C 87.303 219.348,87.860 219.573,87.932 219.666 C 88.080 219.858,90.834 221.005,91.148 221.005 C 91.261 221.005,91.875 221.242,92.513 221.533 C 93.151 221.824,94.025 222.132,94.455 222.218 C 94.886 222.304,95.238 222.468,95.238 222.582 C 95.238 222.696,95.620 222.871,96.086 222.971 C 96.553 223.071,97.052 223.241,97.195 223.349 C 97.339 223.457,97.926 223.687,98.500 223.859 C 99.074 224.031,99.778 224.281,100.065 224.413 C 100.921 224.809,104.617 225.962,105.031 225.962 C 105.242 225.962,105.414 226.061,105.414 226.182 C 105.414 226.302,106.084 226.551,106.902 226.734 C 107.720 226.917,108.571 227.163,108.793 227.281 C 109.556 227.684,113.535 228.832,114.171 228.832 C 114.521 228.832,114.808 228.939,114.808 229.070 C 114.808 229.201,115.295 229.391,115.890 229.491 C 116.485 229.592,117.346 229.830,117.803 230.021 C 118.260 230.212,119.241 230.449,119.982 230.547 C 120.724 230.646,121.331 230.820,121.331 230.935 C 121.331 231.049,121.978 231.224,122.769 231.323 C 123.560 231.422,124.265 231.596,124.336 231.710 C 124.406 231.823,125.315 232.058,126.354 232.231 C 127.394 232.404,128.363 232.630,128.506 232.735 C 128.650 232.839,129.648 233.067,130.724 233.242 C 131.800 233.417,132.916 233.663,133.203 233.789 C 133.732 234.021,134.874 234.247,139.335 235.004 C 140.698 235.235,142.048 235.523,142.335 235.642 C 142.622 235.762,143.679 235.984,144.684 236.136 C 145.688 236.288,147.508 236.579,148.728 236.783 C 149.948 236.987,151.421 237.160,152.003 237.168 C 152.584 237.176,153.171 237.293,153.307 237.428 C 153.444 237.564,155.140 237.812,157.078 237.980 C 159.015 238.149,160.718 238.376,160.861 238.485 C 161.005 238.594,162.462 238.768,164.101 238.871 C 165.739 238.974,167.265 239.157,167.493 239.279 C 167.909 239.501,177.652 240.210,185.388 240.581 C 190.783 240.839,210.782 240.839,216.177 240.581 C 223.913 240.210,233.656 239.501,234.073 239.279 C 234.300 239.157,235.827 238.974,237.465 238.871 C 239.103 238.768,240.561 238.594,240.705 238.485 C 240.848 238.376,242.551 238.149,244.488 237.980 C 246.425 237.812,248.122 237.564,248.258 237.428 C 248.395 237.293,248.982 237.176,249.563 237.168 C 250.144 237.160,251.618 236.985,252.838 236.778 C 254.057 236.572,255.965 236.264,257.078 236.094 C 258.190 235.924,259.100 235.688,259.100 235.570 C 259.100 235.452,259.481 235.355,259.948 235.355 C 260.414 235.355,261.735 235.163,262.883 234.928 C 264.031 234.693,265.675 234.362,266.536 234.192 C 267.397 234.021,268.278 233.812,268.493 233.726 C 268.708 233.640,269.706 233.435,270.711 233.270 C 271.716 233.104,272.772 232.867,273.059 232.743 C 273.346 232.618,274.462 232.328,275.538 232.098 C 276.614 231.868,278.112 231.548,278.865 231.387 C 279.618 231.225,280.235 230.996,280.235 230.876 C 280.235 230.757,280.503 230.659,280.830 230.659 C 281.158 230.659,282.068 230.477,282.852 230.255 C 283.637 230.033,284.808 229.725,285.453 229.570 C 286.099 229.415,286.686 229.211,286.758 229.117 C 286.830 229.022,287.710 228.737,288.715 228.482 C 292.380 227.552,292.759 227.436,292.759 227.252 C 292.759 227.149,293.523 226.921,294.455 226.745 C 295.388 226.569,296.151 226.339,296.151 226.235 C 296.151 226.131,296.795 225.901,297.582 225.725 C 298.369 225.549,299.072 225.309,299.145 225.191 C 299.217 225.074,299.718 224.895,300.258 224.794 C 300.798 224.693,301.357 224.519,301.500 224.407 C 301.644 224.295,302.231 224.063,302.805 223.891 C 303.843 223.579,304.439 223.351,305.936 222.693 C 306.367 222.504,307.189 222.207,307.763 222.034 C 308.337 221.861,308.924 221.633,309.067 221.526 C 309.211 221.420,309.798 221.183,310.372 220.998 C 310.946 220.814,312.139 220.329,313.023 219.921 C 313.908 219.512,314.729 219.174,314.850 219.169 C 314.970 219.164,315.538 218.934,316.112 218.656 C 316.686 218.379,317.303 218.148,317.482 218.143 C 317.661 218.138,317.808 218.017,317.808 217.873 C 317.808 217.730,317.947 217.613,318.117 217.613 C 318.427 217.613,318.918 217.398,323.027 215.467 C 326.801 213.693,332.988 210.566,333.203 210.323 C 333.275 210.242,334.037 209.824,334.897 209.393 C 335.756 208.963,336.608 208.471,336.790 208.302 C 336.971 208.132,337.383 207.910,337.705 207.810 C 338.027 207.709,338.350 207.549,338.421 207.454 C 338.493 207.359,339.550 206.705,340.770 206.001 C 341.990 205.298,343.046 204.656,343.118 204.576 C 343.398 204.264,345.469 203.001,345.700 203.001 C 345.835 203.001,345.984 202.913,346.032 202.805 C 346.080 202.697,346.999 202.026,348.076 201.314 C 349.152 200.602,350.518 199.662,351.112 199.227 C 351.705 198.791,352.449 198.258,352.764 198.043 C 353.473 197.559,356.956 194.903,357.478 194.448 C 357.688 194.265,358.507 193.619,359.298 193.013 C 360.089 192.407,361.135 191.559,361.623 191.129 C 362.110 190.698,362.813 190.077,363.185 189.748 C 367.092 186.297,370.251 183.211,373.323 179.841 C 375.334 177.636,375.670 177.249,376.908 175.714 C 377.339 175.180,377.874 174.555,378.097 174.325 C 379.076 173.318,383.823 166.635,383.823 166.264 C 383.823 166.115,383.911 165.953,384.018 165.906 C 384.331 165.767,385.649 163.734,385.649 163.391 C 385.649 163.219,385.752 163.079,385.878 163.079 C 386.004 163.079,386.264 162.697,386.454 162.231 C 386.645 161.765,386.953 161.228,387.138 161.038 C 387.324 160.848,387.476 160.535,387.476 160.342 C 387.476 160.149,387.571 159.952,387.687 159.904 C 387.913 159.812,391.129 153.438,391.129 153.084 C 391.129 152.895,391.513 151.973,392.562 149.641 C 392.756 149.211,392.999 148.506,393.101 148.076 C 393.204 147.645,393.383 147.171,393.499 147.022 C 393.615 146.873,393.830 146.285,393.975 145.717 C 394.724 142.796,395.090 141.503,395.300 141.031 C 395.536 140.501,396.030 137.934,396.805 133.203 C 397.397 129.593,397.395 116.883,396.802 113.112 C 396.216 109.381,395.568 106.151,395.284 105.545 C 395.150 105.258,394.922 104.381,394.777 103.597 C 394.632 102.813,394.397 102.055,394.256 101.914 C 394.114 101.773,393.998 101.416,393.997 101.122 C 393.996 100.828,393.831 100.272,393.630 99.887 C 393.429 99.502,393.184 98.798,393.084 98.322 C 392.985 97.845,392.755 97.219,392.572 96.930 C 392.390 96.641,392.157 96.025,392.055 95.560 C 391.953 95.096,391.774 94.716,391.658 94.716 C 391.541 94.716,391.366 94.397,391.268 94.008 C 391.019 93.014,389.135 88.809,388.780 88.454 C 388.708 88.382,388.297 87.619,387.867 86.758 C 387.436 85.897,387.014 85.134,386.929 85.062 C 386.843 84.990,386.608 84.615,386.407 84.229 C 385.763 82.994,384.280 80.500,384.109 80.365 C 384.018 80.294,383.361 79.354,382.648 78.278 C 381.936 77.202,381.291 76.262,381.216 76.190 C 381.141 76.119,380.420 75.173,379.613 74.088 C 378.806 73.004,377.984 71.946,377.788 71.738 C 377.591 71.530,376.845 70.656,376.130 69.796 C 372.540 65.478,365.577 58.565,361.383 55.154 C 360.881 54.746,360.411 54.343,360.339 54.259 C 360.267 54.174,359.269 53.379,358.121 52.491 C 356.973 51.602,355.785 50.671,355.480 50.422 C 355.176 50.172,354.667 49.791,354.350 49.576 C 354.032 49.361,352.888 48.509,351.806 47.684 C 350.724 46.859,349.677 46.184,349.479 46.184 C 349.281 46.184,349.119 46.064,349.119 45.917 C 349.119 45.770,348.855 45.535,348.532 45.395 C 348.025 45.175,345.865 43.743,345.071 43.100 C 344.925 42.982,344.221 42.547,343.505 42.134 C 342.790 41.720,342.146 41.304,342.074 41.209 C 342.003 41.114,341.680 40.954,341.358 40.853 C 341.036 40.753,340.625 40.524,340.445 40.344 C 340.265 40.165,339.237 39.521,338.160 38.912 C 337.084 38.304,336.027 37.694,335.812 37.557 C 335.597 37.421,335.127 37.165,334.768 36.990 C 334.410 36.814,334.057 36.610,333.986 36.535 C 333.914 36.460,332.681 35.812,331.247 35.095 C 329.812 34.377,328.579 33.723,328.507 33.641 C 328.375 33.492,326.588 32.617,325.375 32.108 C 325.016 31.957,324.547 31.730,324.331 31.604 C 323.540 31.137,321.526 30.267,321.237 30.267 C 321.073 30.267,320.939 30.150,320.939 30.007 C 320.939 29.863,320.825 29.746,320.686 29.746 C 320.447 29.746,318.728 29.011,316.356 27.896 C 315.773 27.622,315.097 27.397,314.856 27.397 C 314.614 27.397,314.416 27.293,314.416 27.165 C 314.416 27.037,314.097 26.852,313.708 26.754 C 313.068 26.594,312.221 26.248,309.850 25.181 C 309.419 24.987,308.715 24.742,308.284 24.637 C 307.854 24.533,307.443 24.372,307.371 24.281 C 307.299 24.189,306.830 23.981,306.327 23.818 C 304.931 23.363,303.125 22.713,302.544 22.455 C 302.257 22.328,301.083 21.908,299.935 21.522 C 298.787 21.136,297.613 20.720,297.326 20.598 C 297.038 20.476,296.275 20.239,295.629 20.071 C 294.984 19.902,294.085 19.603,293.633 19.406 C 293.181 19.209,292.641 19.048,292.434 19.048 C 292.226 19.048,291.716 18.883,291.299 18.681 C 290.882 18.479,290.013 18.230,289.367 18.127 C 288.721 18.024,288.134 17.860,288.063 17.762 C 287.991 17.665,287.404 17.450,286.758 17.285 C 286.112 17.120,284.703 16.735,283.627 16.429 C 282.551 16.123,280.789 15.676,279.713 15.435 C 278.637 15.195,277.627 14.915,277.470 14.814 C 277.313 14.713,276.667 14.552,276.035 14.455 C 275.403 14.359,274.768 14.192,274.625 14.085 C 274.481 13.978,273.483 13.749,272.407 13.577 C 271.331 13.405,270.255 13.162,270.016 13.037 C 269.778 12.912,268.956 12.730,268.190 12.632 C 267.424 12.535,266.680 12.364,266.536 12.252 C 266.393 12.140,265.277 11.913,264.057 11.747 C 262.838 11.581,261.605 11.340,261.318 11.213 C 260.815 10.990,257.713 10.457,253.620 9.890 C 252.544 9.741,251.429 9.518,251.142 9.393 C 250.855 9.269,249.211 9.035,247.489 8.873 C 245.766 8.711,243.947 8.466,243.444 8.329 C 242.942 8.193,241.357 7.969,239.922 7.832 C 238.487 7.695,236.549 7.465,235.616 7.322 C 234.684 7.179,232.218 6.981,230.137 6.884 C 228.056 6.786,226.292 6.613,226.217 6.499 C 225.797 5.862,195.616 5.551,181.748 6.041 M180.226 25.670 C 182.748 28.430,186.524 34.943,189.487 41.644 C 190.642 44.258,189.917 44.091,200.130 44.091 C 209.915 44.091,209.684 44.128,210.437 42.426 C 214.701 32.784,218.574 26.488,221.624 24.238 C 223.087 23.160,223.150 23.322,222.952 27.620 C 221.850 51.583,229.051 74.255,240.574 83.100 C 247.616 88.505,258.552 90.747,265.546 88.219 C 288.768 79.824,294.010 59.884,279.533 35.024 C 278.041 32.462,277.971 31.997,279.129 32.350 C 279.522 32.470,280.900 32.877,282.192 33.253 C 284.705 33.986,293.719 36.921,294.667 37.314 C 294.981 37.445,297.293 38.310,299.804 39.238 C 304.123 40.833,305.778 41.471,306.980 42.003 C 307.267 42.130,309.498 43.090,311.937 44.136 C 316.953 46.288,326.957 51.193,330.418 53.199 C 331.686 53.933,332.765 54.534,332.818 54.534 C 332.871 54.534,334.417 55.436,336.255 56.539 C 359.055 70.225,374.422 86.581,380.571 103.707 C 386.778 120.994,384.651 140.761,374.903 156.380 C 363.335 174.917,338.907 191.115,310.570 199.039 C 308.132 199.720,308.135 199.775,310.426 195.956 C 318.146 183.088,320.552 171.872,317.084 164.915 C 314.238 159.207,308.010 156.794,297.065 157.158 C 286.209 157.520,276.449 161.914,267.583 170.433 C 263.828 174.042,264.204 173.901,263.344 172.016 C 259.747 164.127,253.805 158.483,247.867 157.315 C 234.837 154.752,219.292 169.239,201.717 200.326 C 200.045 203.284,200.240 203.299,198.415 200.065 C 178.455 164.696,160.786 150.827,146.902 159.628 C 143.262 161.936,139.713 166.234,137.253 171.317 C 135.956 173.996,136.493 174.099,132.682 170.437 C 120.844 159.062,106.078 154.608,91.977 158.159 C 78.866 161.461,78.189 176.723,90.266 196.670 C 92.097 199.694,92.092 199.712,89.707 199.037 C 60.494 190.770,35.534 173.933,24.603 155.121 C 12.739 134.702,13.439 109.983,26.437 90.333 C 35.166 77.137,50.218 64.038,67.765 54.368 C 68.453 53.989,69.786 53.233,70.729 52.688 C 73.409 51.137,84.791 45.620,88.976 43.843 C 91.057 42.960,92.994 42.131,93.281 42.001 C 94.013 41.669,97.721 40.216,99.282 39.649 C 100.000 39.389,101.409 38.866,102.414 38.486 C 110.188 35.550,122.114 31.876,122.114 32.416 C 122.114 32.571,121.389 33.937,120.504 35.452 C 107.246 58.134,110.867 76.884,130.333 86.357 C 137.366 89.779,142.702 90.152,150.641 87.776 C 167.711 82.666,177.718 60.786,177.418 29.224 C 177.390 26.282,177.381 23.784,177.398 23.672 C 177.466 23.238,178.983 24.309,180.226 25.670 " stroke="none" fill="#fbd333" fill-rule="evenodd"></path><path id="path1" d="M177.879 28.637 C 178.011 33.061,177.184 46.129,176.661 47.880 C 176.532 48.311,176.351 49.367,176.258 50.228 C 176.101 51.685,175.650 54.010,175.044 56.491 C 174.904 57.065,174.675 58.004,174.536 58.578 C 174.203 59.950,172.515 65.147,172.078 66.145 C 171.889 66.575,171.406 67.691,171.004 68.624 C 170.602 69.556,169.887 70.985,169.415 71.799 C 168.944 72.612,168.558 73.347,168.558 73.432 C 168.558 73.948,164.567 79.145,162.968 80.710 C 160.369 83.256,155.267 86.888,154.292 86.888 C 154.217 86.888,153.786 87.058,153.334 87.266 C 148.593 89.445,139.349 90.372,135.551 89.049 C 132.686 88.052,128.078 85.926,127.897 85.519 C 127.850 85.411,127.700 85.323,127.566 85.323 C 127.200 85.323,125.347 84.095,123.288 82.489 C 114.179 75.385,110.667 65.935,112.704 54.012 C 113.117 51.595,114.773 46.056,115.513 44.618 C 115.697 44.260,115.849 43.879,115.850 43.772 C 115.853 43.397,118.491 38.083,119.798 35.821 C 121.843 32.280,121.767 32.591,120.484 33.003 C 119.873 33.198,118.493 33.613,117.417 33.925 C 114.332 34.817,109.594 36.324,108.415 36.789 C 108.128 36.902,106.014 37.669,103.718 38.493 C 98.796 40.260,94.657 41.857,91.585 43.176 C 88.706 44.412,88.716 44.408,86.025 45.647 C 84.761 46.229,83.671 46.706,83.602 46.706 C 83.423 46.706,74.004 51.422,72.146 52.442 C 71.285 52.915,69.700 53.773,68.624 54.349 C 67.547 54.925,65.903 55.886,64.971 56.485 C 64.038 57.084,62.629 57.950,61.840 58.409 C 60.444 59.222,57.317 61.252,54.491 63.181 C 53.352 63.959,51.740 65.152,49.705 66.725 C 27.444 83.922,16.699 102.572,16.699 124.015 C 16.699 131.129,18.015 139.438,19.849 143.901 C 19.967 144.188,20.430 145.362,20.877 146.510 C 22.775 151.377,25.445 156.097,29.071 160.992 C 29.656 161.781,30.194 162.485,30.267 162.557 C 30.339 162.629,31.238 163.686,32.264 164.905 C 34.316 167.346,38.624 171.610,41.151 173.701 C 42.043 174.439,42.924 175.174,43.108 175.333 C 52.687 183.622,72.152 193.467,88.193 198.136 C 89.413 198.491,90.646 198.870,90.933 198.978 C 91.422 199.163,91.428 199.144,91.037 198.674 C 88.970 196.197,83.339 184.648,82.795 181.771 C 82.710 181.321,82.548 180.834,82.436 180.688 C 82.005 180.133,81.308 175.607,81.214 172.754 C 80.825 161.029,89.338 155.417,105.409 156.802 C 115.968 157.712,124.954 162.228,134.337 171.340 L 135.992 172.948 137.177 170.582 C 148.715 147.532,168.907 153.314,190.251 185.780 C 193.735 191.079,199.870 201.416,199.870 201.987 C 199.870 202.571,200.259 201.973,203.289 196.738 C 204.909 193.940,206.328 191.611,206.444 191.563 C 206.559 191.516,206.654 191.370,206.654 191.239 C 206.654 190.971,209.188 186.950,211.329 183.823 C 224.715 164.269,236.748 155.228,247.264 156.822 C 253.535 157.773,259.186 162.722,263.255 170.826 L 264.328 172.964 266.228 171.087 C 268.537 168.807,269.994 167.525,271.885 166.112 C 272.674 165.522,273.379 164.975,273.451 164.897 C 274.225 164.054,279.960 160.937,283.496 159.437 C 290.447 156.489,300.917 155.765,308.415 157.715 C 318.273 160.278,321.422 169.188,317.227 182.648 C 316.937 183.581,316.596 184.456,316.471 184.592 C 316.345 184.729,316.243 185.000,316.243 185.196 C 316.243 185.979,313.090 192.385,310.896 196.062 C 309.962 197.627,309.198 198.931,309.198 198.961 C 309.198 199.134,319.922 195.628,322.802 194.513 C 328.765 192.204,337.416 188.188,340.977 186.077 C 341.737 185.626,342.398 185.258,342.447 185.258 C 342.496 185.258,343.812 184.477,345.371 183.523 C 365.025 171.501,377.096 156.902,381.695 139.596 C 384.107 130.517,384.172 117.615,381.846 109.328 C 381.125 106.757,379.601 102.180,379.067 100.978 C 378.116 98.840,375.700 94.117,374.862 92.760 C 374.409 92.025,373.920 91.232,373.777 90.996 C 367.975 81.481,356.466 70.354,343.379 61.606 C 339.373 58.929,337.735 57.901,333.831 55.617 C 332.425 54.794,331.763 54.429,327.815 52.288 C 325.062 50.796,319.321 47.906,317.547 47.120 C 316.614 46.706,314.971 45.967,313.894 45.477 C 309.735 43.585,308.320 42.975,305.675 41.935 C 300.064 39.728,294.327 37.574,293.281 37.282 C 292.779 37.142,292.133 36.927,291.846 36.805 C 290.866 36.389,286.185 34.891,282.844 33.925 C 281.768 33.613,280.388 33.199,279.778 33.003 C 278.462 32.581,278.472 32.554,279.413 33.973 C 287.015 45.441,290.207 61.653,286.519 70.059 C 282.520 79.173,275.488 85.296,264.710 89.049 C 260.912 90.372,251.668 89.445,246.927 87.266 C 246.475 87.058,246.045 86.888,245.972 86.888 C 244.929 86.888,239.651 83.070,237.047 80.432 C 232.214 75.535,226.739 64.691,225.552 57.665 C 225.467 57.162,225.295 56.517,225.168 56.230 C 225.042 55.943,224.747 54.651,224.512 53.359 C 224.125 51.222,223.913 49.812,223.080 43.836 C 222.930 42.759,222.738 37.916,222.653 33.072 C 222.569 28.229,222.439 24.266,222.364 24.266 C 220.562 24.266,214.546 33.909,210.610 43.108 C 209.923 44.714,210.439 44.646,199.609 44.561 L 190.346 44.488 189.790 43.314 C 184.942 33.069,182.253 28.379,179.661 25.651 C 177.729 23.617,177.730 23.616,177.879 28.637 " stroke="none" fill="#040404" fill-rule="evenodd"></path><path id="path2" d="M222.645 26.223 C 222.647 26.941,222.697 27.203,222.757 26.807 C 222.817 26.410,222.816 25.823,222.754 25.502 C 222.692 25.181,222.643 25.506,222.645 26.223 M177.524 27.919 C 177.524 29.282,177.568 29.840,177.622 29.159 C 177.675 28.477,177.675 27.361,177.622 26.680 C 177.568 25.998,177.524 26.556,177.524 27.919 M177.526 33.399 C 177.526 34.905,177.570 35.522,177.622 34.768 C 177.675 34.015,177.675 32.782,177.622 32.029 C 177.570 31.275,177.526 31.892,177.526 33.399 M222.648 35.225 C 222.648 36.014,222.697 36.337,222.757 35.943 C 222.817 35.548,222.817 34.902,222.757 34.508 C 222.697 34.113,222.648 34.436,222.648 35.225 M222.892 39.922 C 222.892 40.424,222.945 40.629,223.011 40.378 C 223.077 40.127,223.077 39.716,223.011 39.465 C 222.945 39.214,222.892 39.419,222.892 39.922 M190.182 43.901 C 190.420 44.204,190.858 44.343,191.487 44.316 L 192.433 44.274 191.521 44.164 C 191.019 44.103,190.432 43.917,190.216 43.749 C 189.874 43.484,189.870 43.503,190.182 43.901 M209.902 43.817 C 209.766 43.950,209.243 44.108,208.741 44.167 L 207.828 44.274 208.774 44.316 C 209.341 44.341,209.851 44.201,210.046 43.966 C 210.402 43.537,210.298 43.430,209.902 43.817 M287.873 58.708 C 287.873 59.354,287.924 59.618,287.986 59.295 C 288.048 58.973,288.048 58.444,287.986 58.121 C 287.924 57.798,287.873 58.063,287.873 58.708 M112.289 60.535 C 112.289 61.755,112.334 62.254,112.389 61.644 C 112.444 61.034,112.444 60.036,112.389 59.426 C 112.334 58.816,112.289 59.315,112.289 60.535 M287.867 62.231 C 287.870 62.805,287.924 63.009,287.986 62.684 C 288.049 62.360,288.046 61.890,287.981 61.641 C 287.916 61.391,287.865 61.657,287.867 62.231 M41.473 73.255 L 40.574 74.234 41.553 73.334 C 42.463 72.497,42.651 72.277,42.452 72.277 C 42.408 72.277,41.968 72.717,41.473 73.255 M279.705 79.778 L 278.017 81.539 279.778 79.851 C 280.747 78.922,281.539 78.130,281.539 78.090 C 281.539 77.898,281.274 78.142,279.705 79.778 M34.556 80.170 L 33.790 81.018 34.638 80.251 C 35.104 79.830,35.486 79.448,35.486 79.403 C 35.486 79.202,35.271 79.379,34.556 80.170 M162.678 80.691 L 161.383 82.061 162.753 80.766 C 164.026 79.563,164.242 79.322,164.048 79.322 C 164.006 79.322,163.390 79.938,162.678 80.691 M120.287 79.664 C 120.287 79.709,120.669 80.091,121.135 80.512 L 121.983 81.279 121.217 80.431 C 120.502 79.640,120.287 79.463,120.287 79.664 M237.443 80.757 C 237.930 81.259,238.387 81.670,238.459 81.670 C 238.530 81.670,238.191 81.259,237.704 80.757 C 237.217 80.254,236.760 79.843,236.688 79.843 C 236.616 79.843,236.956 80.254,237.443 80.757 M138.226 89.421 C 138.549 89.483,139.077 89.483,139.400 89.421 C 139.723 89.359,139.459 89.308,138.813 89.308 C 138.167 89.308,137.903 89.359,138.226 89.421 M142.531 89.417 C 142.782 89.482,143.193 89.482,143.444 89.417 C 143.695 89.351,143.490 89.297,142.988 89.297 C 142.485 89.297,142.280 89.351,142.531 89.417 M256.817 89.417 C 257.068 89.482,257.479 89.482,257.730 89.417 C 257.981 89.351,257.776 89.297,257.273 89.297 C 256.771 89.297,256.566 89.351,256.817 89.417 M260.995 89.424 C 261.392 89.484,261.979 89.482,262.300 89.420 C 262.621 89.359,262.296 89.309,261.579 89.311 C 260.861 89.313,260.598 89.364,260.995 89.424 M383.622 119.243 C 383.622 119.746,383.676 119.951,383.742 119.700 C 383.807 119.449,383.807 119.038,383.742 118.787 C 383.676 118.536,383.622 118.741,383.622 119.243 M16.504 120.157 C 16.507 120.731,16.560 120.935,16.623 120.610 C 16.685 120.286,16.683 119.816,16.618 119.566 C 16.552 119.317,16.501 119.583,16.504 120.157 M16.499 128.115 C 16.499 128.617,16.553 128.823,16.618 128.571 C 16.684 128.320,16.684 127.909,16.618 127.658 C 16.553 127.407,16.499 127.613,16.499 128.115 M383.622 128.898 C 383.622 129.400,383.676 129.605,383.742 129.354 C 383.807 129.103,383.807 128.692,383.742 128.441 C 383.676 128.190,383.622 128.395,383.622 128.898 M314.808 161.513 C 315.368 162.087,315.885 162.557,315.957 162.557 C 316.029 162.557,315.629 162.087,315.068 161.513 C 314.508 160.939,313.991 160.470,313.919 160.470 C 313.847 160.470,314.247 160.939,314.808 161.513 M85.176 161.579 L 84.410 162.427 85.258 161.660 C 86.048 160.946,86.226 160.731,86.024 160.731 C 85.979 160.731,85.598 161.112,85.176 161.579 M143.884 161.579 L 143.118 162.427 143.966 161.660 C 144.432 161.239,144.814 160.857,144.814 160.812 C 144.814 160.611,144.599 160.788,143.884 161.579 M257.273 162.639 C 257.273 162.684,257.655 163.065,258.121 163.487 L 258.969 164.253 258.203 163.405 C 257.489 162.615,257.273 162.437,257.273 162.639 M174.821 166.814 C 174.821 166.858,175.202 167.240,175.669 167.662 L 176.517 168.428 175.750 167.580 C 175.036 166.789,174.821 166.612,174.821 166.814 M266.271 171.172 C 265.086 172.366,264.318 172.950,264.060 172.852 C 263.741 172.731,263.729 172.766,263.998 173.036 C 264.267 173.307,264.710 172.990,266.344 171.356 C 267.452 170.248,268.298 169.341,268.223 169.341 C 268.149 169.341,267.270 170.165,266.271 171.172 M134.116 171.559 C 135.041 172.492,135.856 173.255,135.928 173.255 C 135.999 173.255,135.302 172.492,134.377 171.559 C 133.453 170.626,132.637 169.863,132.566 169.863 C 132.494 169.863,133.192 170.626,134.116 171.559 M81.226 172.211 C 81.226 173.001,81.275 173.324,81.335 172.929 C 81.395 172.534,81.395 171.888,81.335 171.494 C 81.275 171.099,81.226 171.422,81.226 172.211 M318.930 172.211 C 318.930 173.001,318.979 173.324,319.039 172.929 C 319.099 172.534,319.099 171.888,319.039 171.494 C 318.979 171.099,318.930 171.422,318.930 172.211 " stroke="none" fill="#5b4c11" fill-rule="evenodd"></path><path id="path3" d="M177.271 23.856 C 177.192 24.061,177.171 24.501,177.225 24.834 C 177.296 25.280,177.357 25.182,177.454 24.462 C 177.591 23.449,177.518 23.210,177.271 23.856 M222.828 25.387 L 222.956 27.267 223.037 25.597 C 223.082 24.679,223.025 23.833,222.910 23.717 C 222.795 23.602,222.758 24.353,222.828 25.387 M177.952 23.790 C 178.023 23.853,178.787 24.541,179.648 25.317 L 181.213 26.728 180.039 25.477 C 179.393 24.789,178.630 24.102,178.343 23.950 C 178.056 23.798,177.880 23.726,177.952 23.790 M219.861 25.843 C 219.058 26.711,218.276 27.680,218.123 27.996 C 217.955 28.343,218.082 28.260,218.440 27.789 C 218.768 27.358,219.613 26.389,220.319 25.636 C 221.025 24.883,221.539 24.266,221.462 24.266 C 221.385 24.266,220.665 24.976,219.861 25.843 M222.920 36.399 C 222.921 37.547,222.967 37.985,223.022 37.371 C 223.078 36.757,223.077 35.818,223.021 35.283 C 222.965 34.749,222.920 35.251,222.920 36.399 M213.568 35.747 C 213.346 36.177,213.222 36.530,213.294 36.530 C 213.366 36.530,213.606 36.177,213.829 35.747 C 214.052 35.316,214.175 34.964,214.103 34.964 C 214.032 34.964,213.791 35.316,213.568 35.747 M177.247 37.573 C 177.247 38.363,177.296 38.686,177.356 38.291 C 177.416 37.896,177.416 37.250,177.356 36.856 C 177.296 36.461,177.247 36.784,177.247 37.573 M212.697 37.454 C 212.260 38.414,212.344 38.618,212.816 37.746 C 213.037 37.339,213.169 36.957,213.109 36.897 C 213.049 36.837,212.864 37.088,212.697 37.454 M176.979 40.965 C 176.979 41.611,177.030 41.875,177.092 41.553 C 177.154 41.230,177.154 40.701,177.092 40.378 C 177.030 40.055,176.979 40.320,176.979 40.965 M223.158 40.835 C 223.161 41.409,223.214 41.613,223.277 41.289 C 223.339 40.964,223.337 40.494,223.271 40.245 C 223.206 39.995,223.155 40.261,223.158 40.835 M176.708 43.836 C 176.708 44.338,176.761 44.543,176.827 44.292 C 176.893 44.041,176.893 43.630,176.827 43.379 C 176.761 43.128,176.708 43.333,176.708 43.836 M190.438 43.902 C 190.569 44.033,190.955 44.097,191.294 44.044 C 191.816 43.961,191.780 43.925,191.055 43.805 C 190.537 43.719,190.293 43.757,190.438 43.902 M209.132 43.836 L 208.350 44.035 209.052 44.066 C 209.438 44.083,209.827 43.979,209.915 43.836 C 210.004 43.692,210.040 43.589,209.996 43.606 C 209.951 43.623,209.563 43.726,209.132 43.836 M85.062 45.532 C 84.703 45.737,84.527 45.905,84.671 45.905 C 84.814 45.905,85.225 45.737,85.584 45.532 C 85.943 45.327,86.119 45.159,85.975 45.159 C 85.832 45.159,85.421 45.327,85.062 45.532 M223.674 46.184 C 223.674 46.686,223.728 46.892,223.794 46.641 C 223.859 46.389,223.859 45.978,223.794 45.727 C 223.728 45.476,223.674 45.682,223.674 46.184 M81.148 47.358 C 80.789 47.563,80.613 47.731,80.757 47.731 C 80.900 47.731,81.311 47.563,81.670 47.358 C 82.029 47.153,82.205 46.985,82.061 46.985 C 81.918 46.985,81.507 47.153,81.148 47.358 M225.477 56.360 C 225.477 56.575,225.578 56.986,225.701 57.273 C 225.843 57.602,225.925 57.650,225.925 57.404 C 225.925 57.189,225.825 56.778,225.701 56.491 C 225.560 56.162,225.477 56.113,225.477 56.360 M112.520 57.665 C 112.520 58.167,112.573 58.372,112.639 58.121 C 112.705 57.870,112.705 57.459,112.639 57.208 C 112.573 56.957,112.520 57.162,112.520 57.665 M287.619 58.187 C 287.619 58.976,287.668 59.299,287.728 58.904 C 287.787 58.509,287.787 57.864,287.728 57.469 C 287.668 57.074,287.619 57.397,287.619 58.187 M226.521 60.274 C 226.521 60.489,226.622 60.900,226.745 61.187 C 226.886 61.516,226.969 61.564,226.969 61.318 C 226.969 61.102,226.868 60.691,226.745 60.404 C 226.604 60.076,226.521 60.027,226.521 60.274 M287.615 62.492 C 287.617 63.209,287.668 63.472,287.728 63.075 C 287.788 62.679,287.786 62.092,287.724 61.771 C 287.663 61.450,287.613 61.774,287.615 62.492 M112.520 63.144 C 112.520 63.646,112.573 63.852,112.639 63.601 C 112.705 63.350,112.705 62.939,112.639 62.688 C 112.573 62.436,112.520 62.642,112.520 63.144 M47.228 68.124 L 46.053 69.188 47.293 68.222 C 48.379 67.375,48.701 67.056,48.467 67.059 C 48.431 67.059,47.873 67.538,47.228 68.124 M170.301 69.027 C 169.688 70.313,169.774 70.531,170.415 69.317 C 170.706 68.765,170.898 68.267,170.842 68.211 C 170.785 68.154,170.542 68.522,170.301 69.027 M229.876 69.240 C 229.876 69.523,231.433 72.538,231.580 72.538 C 231.651 72.538,231.342 71.804,230.893 70.907 C 230.040 69.207,229.876 68.937,229.876 69.240 M43.428 71.298 L 42.661 72.146 43.509 71.380 C 44.300 70.665,44.477 70.450,44.276 70.450 C 44.231 70.450,43.849 70.832,43.428 71.298 M169.080 71.494 C 168.787 72.068,168.606 72.538,168.678 72.538 C 168.750 72.538,169.048 72.068,169.341 71.494 C 169.634 70.920,169.815 70.450,169.743 70.450 C 169.671 70.450,169.373 70.920,169.080 71.494 M359.295 73.712 C 360.075 74.501,360.771 75.147,360.843 75.147 C 360.915 75.147,360.336 74.501,359.556 73.712 C 358.777 72.922,358.080 72.277,358.009 72.277 C 357.937 72.277,358.516 72.922,359.295 73.712 M40.705 73.712 C 40.071 74.357,39.611 74.886,39.683 74.886 C 39.754 74.886,40.332 74.357,40.965 73.712 C 41.599 73.066,42.059 72.538,41.987 72.538 C 41.916 72.538,41.338 73.066,40.705 73.712 M167.875 73.646 C 166.977 75.170,166.918 75.300,167.376 74.755 C 167.906 74.124,168.363 73.320,168.192 73.320 C 168.123 73.320,167.981 73.467,167.875 73.646 M120.417 79.583 C 121.559 80.731,122.551 81.670,122.623 81.670 C 122.695 81.670,121.820 80.731,120.678 79.583 C 119.537 78.434,118.545 77.495,118.473 77.495 C 118.401 77.495,119.276 78.434,120.417 79.583 M34.821 79.648 L 33.790 80.757 34.899 79.725 C 35.930 78.766,36.128 78.539,35.930 78.539 C 35.888 78.539,35.389 79.038,34.821 79.648 M162.557 80.496 C 161.488 81.572,160.672 82.453,160.744 82.453 C 160.815 82.453,161.749 81.572,162.818 80.496 C 163.887 79.419,164.703 78.539,164.631 78.539 C 164.560 78.539,163.626 79.419,162.557 80.496 M365.427 79.843 C 366.134 80.561,366.771 81.148,366.843 81.148 C 366.914 81.148,366.395 80.561,365.688 79.843 C 364.981 79.126,364.344 78.539,364.273 78.539 C 364.201 78.539,364.721 79.126,365.427 79.843 M237.573 80.626 C 238.570 81.631,239.445 82.453,239.516 82.453 C 239.588 82.453,238.831 81.631,237.834 80.626 C 236.837 79.622,235.963 78.800,235.891 78.800 C 235.820 78.800,236.577 79.622,237.573 80.626 M278.394 80.822 L 277.495 81.800 278.474 80.901 C 279.012 80.407,279.452 79.966,279.452 79.923 C 279.452 79.723,279.231 79.911,278.394 80.822 M243.444 85.182 C 243.444 85.254,243.914 85.552,244.488 85.845 C 245.062 86.138,245.532 86.318,245.532 86.247 C 245.532 86.175,245.062 85.877,244.488 85.584 C 243.914 85.291,243.444 85.110,243.444 85.182 M26.192 90.607 C 25.294 92.130,25.235 92.261,25.693 91.716 C 26.223 91.084,26.680 90.280,26.509 90.280 C 26.440 90.280,26.298 90.427,26.192 90.607 M378.362 98.761 C 378.362 98.904,378.529 99.315,378.735 99.674 C 378.940 100.033,379.107 100.209,379.107 100.065 C 379.107 99.922,378.940 99.511,378.735 99.152 C 378.529 98.793,378.362 98.617,378.362 98.761 M17.352 111.676 C 17.253 112.128,17.226 112.551,17.292 112.617 C 17.359 112.684,17.488 112.363,17.580 111.905 C 17.797 110.817,17.587 110.606,17.352 111.676 M16.504 117.808 C 16.507 118.382,16.560 118.586,16.623 118.262 C 16.685 117.937,16.683 117.468,16.618 117.218 C 16.552 116.969,16.501 117.234,16.504 117.808 M16.265 121.331 C 16.265 122.407,16.311 122.847,16.368 122.309 C 16.424 121.771,16.424 120.890,16.368 120.352 C 16.311 119.814,16.265 120.254,16.265 121.331 M383.906 121.592 C 383.906 122.524,383.953 122.906,384.011 122.440 C 384.069 121.973,384.069 121.210,384.011 120.744 C 383.953 120.277,383.906 120.659,383.906 121.592 M383.908 126.419 C 383.909 127.423,383.957 127.802,384.013 127.261 C 384.069 126.720,384.069 125.898,384.011 125.434 C 383.953 124.971,383.907 125.414,383.908 126.419 M16.267 126.941 C 16.268 128.089,16.314 128.526,16.369 127.912 C 16.424 127.299,16.423 126.359,16.367 125.825 C 16.311 125.290,16.266 125.793,16.267 126.941 M16.499 130.463 C 16.499 130.965,16.553 131.171,16.618 130.920 C 16.684 130.669,16.684 130.258,16.618 130.007 C 16.553 129.755,16.499 129.961,16.499 130.463 M99.870 157.010 C 100.910 157.060,102.613 157.060,103.653 157.010 C 104.693 156.961,103.842 156.920,101.761 156.920 C 99.680 156.920,98.829 156.961,99.870 157.010 M154.410 157.008 C 155.024 157.063,155.963 157.062,156.497 157.006 C 157.032 156.950,156.530 156.905,155.382 156.906 C 154.234 156.907,153.796 156.953,154.410 157.008 M243.908 157.008 C 244.521 157.063,245.461 157.062,245.995 157.006 C 246.530 156.950,246.027 156.905,244.879 156.906 C 243.731 156.907,243.294 156.953,243.908 157.008 M296.869 157.010 C 297.909 157.060,299.612 157.060,300.652 157.010 C 301.693 156.961,300.841 156.920,298.761 156.920 C 296.680 156.920,295.828 156.961,296.869 157.010 M96.086 157.257 C 96.337 157.323,96.748 157.323,96.999 157.257 C 97.250 157.192,97.045 157.138,96.543 157.138 C 96.040 157.138,95.835 157.192,96.086 157.257 M293.085 157.257 C 293.337 157.323,293.748 157.323,293.999 157.257 C 294.250 157.192,294.044 157.138,293.542 157.138 C 293.040 157.138,292.834 157.192,293.085 157.257 M303.262 157.257 C 303.513 157.323,303.924 157.323,304.175 157.257 C 304.426 157.192,304.220 157.138,303.718 157.138 C 303.216 157.138,303.010 157.192,303.262 157.257 M163.601 159.035 C 163.960 159.240,164.371 159.407,164.514 159.407 C 164.658 159.407,164.481 159.240,164.123 159.035 C 163.764 158.829,163.353 158.662,163.209 158.662 C 163.066 158.662,163.242 158.829,163.601 159.035 M236.138 159.035 C 235.780 159.240,235.603 159.407,235.747 159.407 C 235.890 159.407,236.301 159.240,236.660 159.035 C 237.019 158.829,237.195 158.662,237.052 158.662 C 236.908 158.662,236.497 158.829,236.138 159.035 M310.524 158.740 C 310.793 158.981,312.329 159.687,312.329 159.570 C 312.329 159.420,310.882 158.643,310.602 158.643 C 310.499 158.643,310.464 158.687,310.524 158.740 M85.323 161.644 C 84.689 162.290,84.229 162.818,84.301 162.818 C 84.373 162.818,84.950 162.290,85.584 161.644 C 86.218 160.998,86.677 160.470,86.606 160.470 C 86.534 160.470,85.957 160.998,85.323 161.644 M255.708 161.383 C 256.195 161.885,256.652 162.296,256.723 162.296 C 256.795 162.296,256.456 161.885,255.969 161.383 C 255.482 160.881,255.025 160.470,254.953 160.470 C 254.881 160.470,255.221 160.881,255.708 161.383 M314.666 161.579 C 315.747 162.731,315.982 162.938,315.982 162.742 C 315.982 162.700,315.424 162.142,314.742 161.502 L 313.503 160.339 314.666 161.579 M30.528 163.601 C 31.129 164.318,31.679 164.905,31.751 164.905 C 31.823 164.905,31.390 164.318,30.789 163.601 C 30.189 162.883,29.638 162.296,29.567 162.296 C 29.495 162.296,29.928 162.883,30.528 163.601 M142.319 163.405 L 141.553 164.253 142.401 163.487 C 143.191 162.772,143.368 162.557,143.167 162.557 C 143.122 162.557,142.740 162.939,142.319 163.405 M257.795 163.470 C 258.282 163.973,258.739 164.384,258.811 164.384 C 258.883 164.384,258.543 163.973,258.056 163.470 C 257.569 162.968,257.112 162.557,257.040 162.557 C 256.969 162.557,257.308 162.968,257.795 163.470 M273.059 165.581 L 272.277 166.253 273.125 165.692 C 273.591 165.383,273.973 165.080,273.973 165.018 C 273.973 164.823,273.862 164.891,273.059 165.581 M33.268 166.732 C 33.975 167.449,34.612 168.037,34.684 168.037 C 34.755 168.037,34.236 167.449,33.529 166.732 C 32.822 166.014,32.185 165.427,32.114 165.427 C 32.042 165.427,32.561 166.014,33.268 166.732 M366.981 166.536 L 365.949 167.645 367.058 166.614 C 368.089 165.654,368.287 165.427,368.089 165.427 C 368.047 165.427,367.548 165.926,366.981 166.536 M175.473 167.776 C 176.470 168.780,177.344 169.602,177.416 169.602 C 177.488 169.602,176.731 168.780,175.734 167.776 C 174.737 166.771,173.863 165.949,173.791 165.949 C 173.719 165.949,174.476 166.771,175.473 167.776 M224.397 167.906 C 223.327 168.982,222.511 169.863,222.583 169.863 C 222.655 169.863,223.588 168.982,224.658 167.906 C 225.727 166.830,226.543 165.949,226.471 165.949 C 226.399 165.949,225.466 166.830,224.397 167.906 M129.159 167.074 C 129.159 167.119,129.540 167.501,130.007 167.922 L 130.855 168.689 130.088 167.841 C 129.374 167.050,129.159 166.873,129.159 167.074 M81.800 168.037 C 81.701 168.488,81.675 168.911,81.741 168.977 C 81.808 169.044,81.937 168.723,82.029 168.265 C 82.246 167.177,82.035 166.966,81.800 168.037 M133.333 171.037 C 134.691 172.401,135.861 173.516,135.932 173.516 C 136.004 173.516,134.952 172.401,133.594 171.037 C 132.237 169.674,131.067 168.558,130.995 168.558 C 130.924 168.558,131.976 169.674,133.333 171.037 M266.663 171.041 C 265.208 172.503,264.319 173.211,264.059 173.113 C 263.741 172.992,263.729 173.027,263.998 173.297 C 264.267 173.569,264.784 173.177,266.736 171.225 C 268.059 169.902,269.081 168.819,269.007 168.819 C 268.934 168.819,267.879 169.819,266.663 171.041 M318.688 172.211 C 318.688 173.718,318.731 174.335,318.783 173.581 C 318.836 172.828,318.836 171.595,318.783 170.841 C 318.731 170.088,318.688 170.705,318.688 172.211 M81.502 172.342 C 81.501 173.633,81.545 174.195,81.600 173.589 C 81.654 172.984,81.655 171.927,81.601 171.241 C 81.547 170.555,81.502 171.050,81.502 172.342 M178.604 171.168 C 179.165 171.742,179.682 172.211,179.754 172.211 C 179.825 172.211,179.426 171.742,178.865 171.168 C 178.304 170.594,177.787 170.124,177.715 170.124 C 177.644 170.124,178.044 170.594,178.604 171.168 M221.384 171.233 L 220.352 172.342 221.461 171.310 C 222.492 170.351,222.690 170.124,222.493 170.124 C 222.450 170.124,221.951 170.623,221.384 171.233 M38.084 171.494 C 38.724 172.175,39.282 172.733,39.324 172.733 C 39.520 172.733,39.313 172.499,38.160 171.418 L 36.921 170.254 38.084 171.494 M361.762 171.755 L 360.731 172.864 361.840 171.832 C 362.449 171.265,362.948 170.766,362.948 170.723 C 362.948 170.526,362.721 170.723,361.762 171.755 M263.032 171.298 C 263.032 171.442,263.200 171.853,263.405 172.211 C 263.610 172.570,263.778 172.746,263.778 172.603 C 263.778 172.459,263.610 172.048,263.405 171.689 C 263.200 171.331,263.032 171.155,263.032 171.298 M357.208 175.639 L 356.034 176.702 357.139 175.873 C 358.101 175.151,358.718 174.543,358.463 174.567 C 358.419 174.572,357.854 175.054,357.208 175.639 M338.878 187.493 C 338.196 187.848,337.639 188.196,337.639 188.268 C 337.639 188.339,338.226 188.100,338.943 187.736 C 339.661 187.373,340.248 187.019,340.248 186.949 C 340.248 186.777,340.271 186.767,338.878 187.493 M66.014 190.085 C 66.373 190.290,66.784 190.458,66.928 190.458 C 67.071 190.458,66.895 190.290,66.536 190.085 C 66.177 189.880,65.766 189.712,65.623 189.712 C 65.479 189.712,65.656 189.880,66.014 190.085 M333.725 190.085 C 333.366 190.290,333.190 190.458,333.333 190.458 C 333.477 190.458,333.888 190.290,334.247 190.085 C 334.605 189.880,334.781 189.712,334.638 189.712 C 334.494 189.712,334.083 189.880,333.725 190.085 M199.603 202.153 C 199.916 202.798,200.260 202.902,200.547 202.438 C 200.666 202.246,200.618 202.208,200.414 202.334 C 200.228 202.449,199.934 202.330,199.707 202.048 C 199.345 201.597,199.338 201.604,199.603 202.153 " stroke="none" fill="#846c1c" fill-rule="evenodd"></path><path id="path4" d="M222.672 30.659 C 222.672 32.524,222.714 33.253,222.764 32.279 C 222.814 31.304,222.814 29.778,222.763 28.887 C 222.712 27.996,222.671 28.793,222.672 30.659 M196.151 44.292 C 198.340 44.335,201.921 44.335,204.110 44.292 C 206.298 44.248,204.508 44.212,200.130 44.212 C 195.753 44.212,193.963 44.248,196.151 44.292 M287.862 60.535 C 287.862 61.037,287.916 61.243,287.982 60.992 C 288.047 60.740,288.047 60.329,287.982 60.078 C 287.916 59.827,287.862 60.033,287.862 60.535 M362.427 76.843 C 363.351 77.776,364.166 78.539,364.238 78.539 C 364.310 78.539,363.612 77.776,362.688 76.843 C 361.763 75.910,360.948 75.147,360.876 75.147 C 360.804 75.147,361.502 75.910,362.427 76.843 M37.298 77.169 L 36.399 78.147 37.378 77.248 C 38.288 76.411,38.476 76.190,38.277 76.190 C 38.233 76.190,37.793 76.631,37.298 77.169 M16.243 124.070 C 16.246 124.644,16.300 124.849,16.362 124.524 C 16.424 124.199,16.422 123.730,16.357 123.480 C 16.291 123.231,16.240 123.496,16.243 124.070 M383.883 123.940 C 383.883 124.442,383.937 124.648,384.002 124.397 C 384.068 124.145,384.068 123.735,384.002 123.483 C 383.937 123.232,383.883 123.438,383.883 123.940 M35.736 169.145 C 36.376 169.827,36.934 170.385,36.975 170.385 C 37.171 170.385,36.964 170.151,35.812 169.069 L 34.573 167.906 35.736 169.145 M364.367 169.145 L 363.601 169.993 364.449 169.227 C 365.239 168.513,365.417 168.297,365.215 168.297 C 365.170 168.297,364.789 168.679,364.367 169.145 " stroke="none" fill="#7c6c1c" fill-rule="evenodd"></path><path id="path5" d="M177.430 24.788 C 177.430 25.219,177.475 25.571,177.531 25.571 C 177.586 25.571,177.683 25.219,177.746 24.788 C 177.810 24.357,177.764 24.005,177.646 24.005 C 177.527 24.005,177.430 24.357,177.430 24.788 M177.798 30.659 C 177.797 33.098,177.836 34.132,177.885 32.955 C 177.933 31.778,177.933 29.782,177.885 28.519 C 177.837 27.256,177.798 28.219,177.798 30.659 M218.917 27.397 C 218.611 27.828,218.418 28.180,218.490 28.180 C 218.562 28.180,218.872 27.828,219.178 27.397 C 219.485 26.967,219.677 26.614,219.605 26.614 C 219.533 26.614,219.224 26.967,218.917 27.397 M177.508 37.312 C 177.508 38.102,177.557 38.425,177.617 38.030 C 177.677 37.635,177.677 36.990,177.617 36.595 C 177.557 36.200,177.508 36.523,177.508 37.312 M222.641 37.573 C 222.641 38.219,222.692 38.483,222.754 38.160 C 222.816 37.838,222.816 37.309,222.754 36.986 C 222.692 36.663,222.641 36.928,222.641 37.573 M282.765 40.571 C 283.003 41.071,283.245 41.434,283.301 41.378 C 283.421 41.258,282.629 39.661,282.450 39.661 C 282.384 39.661,282.526 40.070,282.765 40.571 M222.897 41.618 C 222.900 42.192,222.953 42.396,223.016 42.071 C 223.078 41.747,223.076 41.277,223.010 41.028 C 222.945 40.778,222.894 41.044,222.897 41.618 M90.541 43.444 C 90.183 43.649,90.007 43.817,90.150 43.817 C 90.294 43.817,90.705 43.649,91.063 43.444 C 91.422 43.239,91.598 43.071,91.455 43.071 C 91.311 43.071,90.900 43.239,90.541 43.444 M223.153 44.357 C 223.153 44.860,223.206 45.065,223.272 44.814 C 223.337 44.563,223.337 44.152,223.272 43.901 C 223.206 43.650,223.153 43.855,223.153 44.357 M190.182 44.162 C 190.513 44.584,191.262 44.614,200.097 44.557 L 209.654 44.495 200.153 44.423 C 193.094 44.369,190.546 44.268,190.238 44.028 C 189.872 43.743,189.865 43.758,190.182 44.162 M84.018 46.314 C 83.659 46.520,83.483 46.687,83.627 46.687 C 83.770 46.687,84.181 46.520,84.540 46.314 C 84.899 46.109,85.075 45.942,84.932 45.942 C 84.788 45.942,84.377 46.109,84.018 46.314 M176.708 46.706 C 176.708 47.208,176.761 47.414,176.827 47.162 C 176.893 46.911,176.893 46.500,176.827 46.249 C 176.761 45.998,176.708 46.204,176.708 46.706 M315.721 46.314 C 316.080 46.520,316.491 46.687,316.634 46.687 C 316.778 46.687,316.601 46.520,316.243 46.314 C 315.884 46.109,315.473 45.942,315.329 45.942 C 315.186 45.942,315.362 46.109,315.721 46.314 M223.893 50.120 C 223.903 50.466,224.018 50.985,224.148 51.272 C 224.313 51.636,224.336 51.478,224.225 50.750 C 224.041 49.539,223.867 49.208,223.893 50.120 M287.337 53.620 C 287.339 53.907,287.431 54.494,287.541 54.925 C 287.720 55.628,287.740 55.641,287.745 55.055 C 287.747 54.697,287.656 54.110,287.541 53.751 C 287.377 53.240,287.333 53.211,287.337 53.620 M112.273 57.273 C 112.275 57.991,112.326 58.253,112.386 57.857 C 112.446 57.460,112.444 56.873,112.382 56.552 C 112.320 56.231,112.271 56.556,112.273 57.273 M287.862 56.882 C 287.862 57.384,287.916 57.590,287.982 57.339 C 288.047 57.087,288.047 56.676,287.982 56.425 C 287.916 56.174,287.862 56.380,287.862 56.882 M111.998 60.535 C 111.998 61.037,112.052 61.243,112.117 60.992 C 112.183 60.740,112.183 60.329,112.117 60.078 C 112.052 59.827,111.998 60.033,111.998 60.535 M112.264 63.536 C 112.267 64.110,112.320 64.314,112.383 63.989 C 112.445 63.665,112.443 63.195,112.378 62.945 C 112.312 62.696,112.261 62.962,112.264 63.536 M349.772 66.124 C 350.202 66.494,351.083 67.158,351.729 67.600 C 352.631 68.218,352.721 68.248,352.120 67.731 C 351.689 67.361,350.809 66.697,350.163 66.255 C 349.261 65.637,349.170 65.607,349.772 66.124 M356.686 71.575 C 356.686 71.620,357.068 72.002,357.534 72.423 L 358.382 73.190 357.616 72.342 C 356.902 71.551,356.686 71.374,356.686 71.575 M359.295 73.914 C 359.295 73.953,360.205 74.863,361.318 75.936 L 363.340 77.886 361.389 75.864 C 359.578 73.986,359.295 73.723,359.295 73.914 M37.960 76.778 L 35.356 79.452 38.030 76.848 C 40.514 74.429,40.823 74.103,40.634 74.103 C 40.596 74.103,39.392 75.307,37.960 76.778 M280.235 79.452 C 279.601 80.098,279.141 80.626,279.213 80.626 C 279.285 80.626,279.862 80.098,280.496 79.452 C 281.130 78.806,281.589 78.278,281.518 78.278 C 281.446 78.278,280.869 78.806,280.235 79.452 M366.341 81.279 C 366.827 81.781,367.284 82.192,367.356 82.192 C 367.428 82.192,367.088 81.781,366.601 81.279 C 366.115 80.776,365.658 80.365,365.586 80.365 C 365.514 80.365,365.854 80.776,366.341 81.279 M238.487 81.752 C 238.487 81.796,238.868 82.178,239.335 82.600 L 240.183 83.366 239.416 82.518 C 238.702 81.727,238.487 81.550,238.487 81.752 M367.902 83.107 C 368.941 84.358,369.029 84.439,368.745 83.885 C 368.597 83.596,368.201 83.127,367.865 82.843 C 367.275 82.344,367.277 82.353,367.902 83.107 M31.572 83.757 C 31.117 84.331,30.804 84.801,30.876 84.801 C 30.948 84.801,31.378 84.331,31.833 83.757 C 32.288 83.183,32.601 82.714,32.529 82.714 C 32.457 82.714,32.027 83.183,31.572 83.757 M136.204 89.233 C 136.419 89.374,136.879 89.492,137.225 89.494 C 138.063 89.499,137.851 89.351,136.725 89.144 C 136.083 89.026,135.928 89.053,136.204 89.233 M263.275 89.237 C 262.737 89.409,262.714 89.450,263.144 89.468 C 263.431 89.480,263.842 89.376,264.057 89.237 C 264.515 88.941,264.197 88.941,263.275 89.237 M144.230 89.421 C 144.555 89.484,145.024 89.481,145.274 89.416 C 145.523 89.351,145.258 89.300,144.684 89.303 C 144.110 89.305,143.905 89.359,144.230 89.421 M255.124 89.421 C 255.448 89.484,255.918 89.481,256.167 89.416 C 256.417 89.351,256.151 89.300,255.577 89.303 C 255.003 89.305,254.799 89.359,255.124 89.421 M139.791 89.689 C 140.401 89.744,141.399 89.744,142.009 89.689 C 142.619 89.634,142.120 89.589,140.900 89.589 C 139.680 89.589,139.181 89.634,139.791 89.689 M258.252 89.689 C 258.862 89.744,259.860 89.744,260.470 89.689 C 261.080 89.634,260.581 89.589,259.361 89.589 C 258.141 89.589,257.642 89.634,258.252 89.689 M377.579 97.717 C 377.579 97.860,377.747 98.271,377.952 98.630 C 378.157 98.989,378.325 99.165,378.325 99.022 C 378.325 98.878,378.157 98.467,377.952 98.108 C 377.747 97.750,377.579 97.573,377.579 97.717 M17.892 110.521 C 17.796 110.903,17.768 111.266,17.829 111.328 C 17.891 111.390,18.020 111.127,18.116 110.745 C 18.212 110.362,18.240 109.999,18.178 109.937 C 18.117 109.876,17.988 110.139,17.892 110.521 M17.021 115.851 C 17.021 116.354,17.074 116.559,17.140 116.308 C 17.206 116.057,17.206 115.646,17.140 115.395 C 17.074 115.144,17.021 115.349,17.021 115.851 M383.667 124.070 C 383.668 126.367,383.708 127.271,383.756 126.080 C 383.804 124.889,383.804 123.011,383.755 121.905 C 383.707 120.800,383.667 121.774,383.667 124.070 M16.539 124.201 C 16.539 125.995,16.581 126.729,16.632 125.832 C 16.682 124.935,16.682 123.467,16.632 122.570 C 16.581 121.673,16.539 122.407,16.539 124.201 M17.021 132.290 C 17.021 132.792,17.074 132.997,17.140 132.746 C 17.206 132.495,17.206 132.084,17.140 131.833 C 17.074 131.582,17.021 131.787,17.021 132.290 M381.884 138.701 C 381.788 139.083,381.760 139.447,381.822 139.508 C 381.883 139.570,382.012 139.307,382.108 138.925 C 382.204 138.542,382.232 138.179,382.171 138.118 C 382.109 138.056,381.980 138.319,381.884 138.701 M378.125 149.391 C 377.687 150.351,377.771 150.556,378.244 149.683 C 378.464 149.276,378.596 148.894,378.536 148.834 C 378.477 148.775,378.291 149.025,378.125 149.391 M99.870 156.748 C 100.623 156.801,101.856 156.801,102.609 156.748 C 103.363 156.695,102.746 156.652,101.239 156.652 C 99.733 156.652,99.116 156.695,99.870 156.748 M154.534 156.743 C 154.928 156.802,155.574 156.802,155.969 156.743 C 156.363 156.683,156.040 156.634,155.251 156.634 C 154.462 156.634,154.139 156.683,154.534 156.743 M244.557 156.743 C 244.953 156.803,245.540 156.801,245.861 156.739 C 246.182 156.678,245.858 156.628,245.140 156.630 C 244.423 156.632,244.160 156.683,244.557 156.743 M297.652 156.748 C 298.405 156.801,299.638 156.801,300.391 156.748 C 301.145 156.695,300.528 156.652,299.022 156.652 C 297.515 156.652,296.898 156.695,297.652 156.748 M93.281 157.339 C 92.616 157.624,93.302 157.624,94.194 157.339 C 94.719 157.171,94.744 157.128,94.325 157.122 C 94.038 157.118,93.568 157.215,93.281 157.339 M306.067 157.339 C 306.959 157.624,307.645 157.624,306.980 157.339 C 306.693 157.215,306.223 157.118,305.936 157.122 C 305.517 157.128,305.542 157.171,306.067 157.339 M142.841 162.361 L 142.074 163.209 142.922 162.443 C 143.713 161.729,143.890 161.513,143.689 161.513 C 143.644 161.513,143.262 161.895,142.841 162.361 M256.491 161.595 C 256.491 161.640,256.872 162.022,257.339 162.443 L 258.187 163.209 257.420 162.361 C 256.706 161.571,256.491 161.393,256.491 161.595 M368.407 164.449 C 367.635 165.346,367.210 165.915,367.462 165.715 C 367.994 165.293,370.099 162.818,369.926 162.818 C 369.863 162.818,369.179 163.552,368.407 164.449 M141.125 164.318 C 140.374 165.225,140.056 165.688,140.185 165.688 C 140.257 165.688,140.630 165.277,141.013 164.775 C 141.724 163.843,141.810 163.491,141.125 164.318 M173.255 165.297 C 173.742 165.799,174.199 166.210,174.271 166.210 C 174.342 166.210,174.003 165.799,173.516 165.297 C 173.029 164.795,172.572 164.384,172.500 164.384 C 172.429 164.384,172.768 164.795,173.255 165.297 M226.344 165.753 L 225.049 167.123 226.419 165.828 C 227.172 165.116,227.789 164.500,227.789 164.459 C 227.789 164.264,227.547 164.481,226.344 165.753 M363.988 169.276 L 361.252 172.081 364.057 169.346 C 366.663 166.805,366.981 166.471,366.792 166.471 C 366.754 166.471,365.492 167.733,363.988 169.276 M35.747 168.950 C 36.960 170.170,38.012 171.168,38.084 171.168 C 38.155 171.168,37.221 170.170,36.008 168.950 C 34.794 167.730,33.743 166.732,33.671 166.732 C 33.599 166.732,34.533 167.730,35.747 168.950 M318.367 167.254 C 318.367 167.469,318.468 167.880,318.591 168.167 C 318.732 168.496,318.815 168.544,318.815 168.297 C 318.815 168.082,318.714 167.671,318.591 167.384 C 318.450 167.055,318.367 167.007,318.367 167.254 M81.315 168.874 C 81.227 169.203,81.167 169.824,81.182 170.254 C 81.201 170.795,81.277 170.635,81.426 169.741 C 81.654 168.378,81.588 167.858,81.315 168.874 M222.427 169.667 L 221.396 170.776 222.505 169.745 C 223.536 168.786,223.734 168.558,223.536 168.558 C 223.494 168.558,222.995 169.057,222.427 169.667 M177.691 169.733 C 178.178 170.235,178.635 170.646,178.706 170.646 C 178.778 170.646,178.439 170.235,177.952 169.733 C 177.465 169.230,177.008 168.819,176.936 168.819 C 176.864 168.819,177.204 169.230,177.691 169.733 M133.986 171.168 C 134.692 171.885,135.329 172.472,135.401 172.472 C 135.473 172.472,134.953 171.885,134.247 171.168 C 133.540 170.450,132.903 169.863,132.831 169.863 C 132.759 169.863,133.279 170.450,133.986 171.168 M179.256 171.510 C 179.256 171.555,179.638 171.937,180.104 172.358 L 180.952 173.125 180.186 172.277 C 179.472 171.486,179.256 171.309,179.256 171.510 M39.139 172.032 C 39.139 172.077,39.521 172.459,39.987 172.880 L 40.835 173.646 40.069 172.798 C 39.354 172.008,39.139 171.830,39.139 172.032 M81.166 174.451 C 81.177 175.013,81.285 175.708,81.406 175.995 C 81.544 176.320,81.573 175.975,81.482 175.082 C 81.307 173.363,81.141 173.031,81.166 174.451 M318.912 174.299 C 318.912 174.801,318.966 175.007,319.032 174.755 C 319.097 174.504,319.097 174.093,319.032 173.842 C 318.966 173.591,318.912 173.796,318.912 174.299 M83.124 182.909 C 83.220 183.268,83.407 183.738,83.540 183.953 C 83.708 184.225,83.729 184.145,83.608 183.692 C 83.512 183.333,83.324 182.864,83.191 182.648 C 83.023 182.376,83.003 182.456,83.124 182.909 M68.885 191.129 C 69.243 191.334,69.654 191.501,69.798 191.501 C 69.941 191.501,69.765 191.334,69.406 191.129 C 69.048 190.923,68.637 190.756,68.493 190.756 C 68.350 190.756,68.526 190.923,68.885 191.129 M330.855 191.129 C 330.496 191.334,330.320 191.501,330.463 191.501 C 330.607 191.501,331.018 191.334,331.376 191.129 C 331.735 190.923,331.911 190.756,331.768 190.756 C 331.624 190.756,331.213 190.923,330.855 191.129 M324.070 193.999 C 323.712 194.204,323.536 194.372,323.679 194.372 C 323.823 194.372,324.234 194.204,324.592 193.999 C 324.951 193.794,325.127 193.626,324.984 193.626 C 324.840 193.626,324.429 193.794,324.070 193.999 " stroke="none" fill="#2b2408" fill-rule="evenodd"></path></g></svg>